/* XPM */
static char *MWt5NjBucTluaDA5MQ__[] = {
/* columns rows colors chars-per-pixel */
"64 64 130 2 ",
"   c #B9B85E",
".  c #B7B663",
"X  c #B8B764",
"o  c #BDBC64",
"O  c #BEBD69",
"+  c #C0BF66",
"@  c #C1BF6A",
"#  c #C2C266",
"$  c #CBCB66",
"%  c #C5C46B",
"&  c #C8C76D",
"*  c #C7C86A",
"=  c #CBCA6E",
"-  c #CED06D",
";  c #D2D26E",
":  c #D6D86D",
">  c #C6C471",
",  c #C9C771",
"<  c #CFCD75",
"1  c #CDCC72",
"2  c #CFCD78",
"3  c #CECC79",
"4  c #CFCD79",
"5  c #D0CF72",
"6  c #D0CF73",
"7  c #D0CF75",
"8  c #D0CE77",
"9  c #D0CF73",
"0  c #D1CF78",
"q  c #D0CE79",
"w  c #D1CF7A",
"e  c #D1CF78",
"r  c #CFD073",
"t  c #CFD072",
"y  c #D0D070",
"u  c #D1D171",
"i  c #D2D270",
"p  c #D3D371",
"a  c #D1D073",
"s  c #D0D173",
"d  c #D2D272",
"f  c #D3D373",
"g  c #D4D470",
"h  c #D5D571",
"j  c #D5D670",
"k  c #D4D472",
"l  c #D5D573",
"z  c #D6D672",
"x  c #D7D773",
"c  c #D1D074",
"v  c #D2D174",
"b  c #D2D175",
"n  c #D3D275",
"m  c #D1D076",
"M  c #D2D177",
"N  c #D3D276",
"B  c #D4D376",
"V  c #D4D377",
"C  c #D3D476",
"Z  c #D4D474",
"A  c #D5D575",
"S  c #D6D674",
"D  c #D7D775",
"F  c #D5D477",
"G  c #D4D577",
"H  c #D6D676",
"J  c #D7D777",
"K  c #D3D274",
"L  c #D7D870",
"P  c #D7D872",
"I  c #DADB73",
"U  c #DCDE73",
"Y  c #D8D874",
"T  c #D9D975",
"R  c #D9DA74",
"E  c #DADB75",
"W  c #D8D876",
"Q  c #D9D977",
"!  c #DADA76",
"~  c #DBDB77",
"^  c #DBDC76",
"/  c #DCDD77",
"(  c #DADA76",
")  c #D1D179",
"_  c #D2D079",
"`  c #D3D278",
"'  c #D3D17A",
"]  c #D2D07B",
"[  c #D4D379",
"{  c #D4D27B",
"}  c #D5D478",
"|  c #D6D578",
" . c #D6D579",
".. c #D7D679",
"X. c #D5D47A",
"o. c #D6D57B",
"O. c #D7D67A",
"+. c #D3D17E",
"@. c #D7D67C",
"#. c #D5D479",
"$. c #D8D77A",
"%. c #D8D77B",
"&. c #D8D77A",
"*. c #D7D978",
"=. c #D8D878",
"-. c #D9D979",
";. c #DADA78",
":. c #DBDB79",
">. c #D9D87B",
",. c #DADA7A",
"<. c #DBDB7B",
"1. c #DCDC78",
"2. c #DDDD79",
"3. c #DDDE78",
"4. c #DCDC7A",
"5. c #DDDD7B",
"6. c #DEDE7A",
"7. c #D9D87C",
"8. c #DAD97C",
"9. c #DAD97D",
"0. c #DBDA7D",
"q. c #DBDA7E",
"w. c #DCDB7E",
"e. c #DCDC7C",
"r. c #DEDE7C",
"t. c #DFDF7D",
"y. c #DDDC7F",
"u. c #DBDA7A",
"i. c #E0E07E",
"p. c #DDDC80",
/* pixels */
"c w.O.O.a Z 2.Y 6 B $.$.6 i 6.L & F B #.9 F Q y y B 9 #.F S ~ g = B F F 5 i 4.S & 9 8.9 6 J ~ ~ 5 [ B 9 = Q Q L = Q Q #.9 S 4.~ ",
"6 1 * 1 6 Z ~ J 6 & % = = i ~ i = = + = $ y T S = 5 & & = 9 J ; = & % = = i J ; 1 & @ = 5 - Q L , & % 1 = F J S 9 = # 9 9 S ~ ~ ",
"a = # = = J ,.J a & # & = 6 ,.B 5 & + & & 9 Q T 8 5 & & = S ~ S 9 & @ & = ; J ; 5 = + & = 9 4.S 5 & + & & L F J 9 & # = 5 Q ~ ~ ",
"6 B a 6 = $.,.J 6 6 - = & B 8.B = 9 = = & F F 9 & = & = = 9 Q Q & 6 5 & = 9 J S = 9 = 5 = 9 w.Q 5 9 - = & #.Q Q = B 9 9 = Q 6.3.",
"= T ,.$.= Z Z O.= B $.9 = 6 8 8 = 9 S 9 & 9 F 9 5 e 8.Q 9 F F F 1 #.8.#.9 F F Q & = Q 9 = B 9 9 & B #.9 = 9 F B = #.8.Q = J Q Q ",
"a Z ,.w.= 1 & = 5 B $.F 6 & # & 9 9 Q 8.& & % , & 5 #.F = & % + & 5 #.9 = * + % = = 8.F = = + % = 6 #.Q = = % % 6 9 #.~ y = & 5 ",
"k Z 2.,.= 1 % & 6 i $.B - & % % & y Q Q & % + @ = 9 Q F 5 , % @ 9 #.Q 9 5 & + & 6 = Q B = & + % = 9 F #.= & # % 6 9 Q Q = 5 % , ",
"$ Z i.T $ Z 1 8 = i ~ 6 = 1 , 8 & 9 #.i & 9 8 9 & - 4.#.& 5 8 q $ 9 Q 5 , 5 > 1 & 9 $.B & = 8 8 & F Q B & = 8 e = i 4.Q = #.9 +.",
"= 0.Q Q 9 F Q S 6 B B F 6 - Q - = S 9 9 - 5 F 6 = S 9 S = 9 Q - & F 9 F = - D k $ a a c 8 9 J 6 = S F 9 = 9 Q B = Q F #.9 S Q ~ ",
"v 9 % = = 9 L Q = & # & & 6 Q - , & # & 5 5 S ; = = + & 9 F F S & = % = = a D k 1 = # = - 6 ~ L 6 & % & 5 9 ~ S 5 5 % - 9 L ~ ~ ",
"9 = # = y F J L 9 = % & = 9 w.L 8 , @ % & y S g 5 = + * 9 F F S , 5 % & = G D l 3 % + & = i J L 8 % @ & & ; I L 8 = + & - J ~ ~ ",
"5 F F 9 = Q Q Q 6 1 = = & 6 $.F , 9 9 & & i Q S 5 9 9 9 & S ~ i 1 9 9 = * D *.l > 1 < 1 5 i ~ S , e 9 & = i Q J , B 6 6 = Q 6.3.",
"= Q 8.#.= F F Q 5 9 Q F - 9 S F $ 9 F 9 = 9 9 e , 9 8.Q & 9 J 9 & 9 O.c 1 a r G & 8 O.1 = 1 [ [ = F Q 9 & 6 9 #., #.8.Q y Q J Q ",
"9 &.0.Q 9 = # = & 9 #.9 & & # + = ; F i = , @ > & 9 #.#.= 5 # = 5 5 c O.= & # , ; = c c 1 & > > = ; J B 5 & @ , 5 9 8.8.y - % 5 ",
"y S 4.Q 9 = # % 9 F ~ 9 & & + % = = Q 9 = % @ @ & 5 F 9 = = + & 1 = Z Z & * + % = = [ B = % O @ = - B 6 & & + % 5 9 Q F 5 = % & ",
"- Q w.F & 9 8 e = i w.9 = & > q % 9 p.B & 1 & 1 & 5 Q #.# 5 8 , # ; ,.a # = , < & 1 $.6 * & , 1 % 8 Q = 5 9 & 6 & S 4.J & #.9 #.",
"; F T S 9 9 Q F = ~ B 9 = 8 B 5 , 9 = i & & F g = 6 5 #., 8 #.9 - J 5 5 6 9 F 9 = 9 B 9 9 y Q y = F [ [ = 9 ; S & F B #.6 B ~ ~ ",
"9 = & = y 9 Q L & 1 + & = 6 J ; % & o & = 9 ~ S & & @ 5 = i I ; = , + & = = ; S = & + & & = F S & & % % & B S ; = 1 # 5 6 i ~ ~ ",
"{ 1 % = = S T : 1 , + & = i L ; 8 , + * % 5 F ; , , @ & & S T ; 8 > + % = - g g 5 % + & = = F S 5 , # & = $.J S 8 & + = 5 L ~ ~ ",
"9 { 9 = = F ~ L , q 5 = = S B y % 5 * = & 5 J L , , 5 9 & S L S 1 8 5 & & S F S % 5 9 9 = S Q F & 5 & & & B i F 5 6 5 = = J 6.6.",
"= S 4.F 9 9 #.#.& F $.B = 9 5 8 % 6 ; F = = S S & 9 F F 5 9 9 { & v &.y = 9 9 e & 5 #.9 = 9 9 B 1 e F F 5 9 B $.= 9 #.$.- F J Q ",
"S g ~ Q 9 & , 1 - i F F = , @ > 5 9 J F % % % # $ 9 F i & 5 % > = y Q v = % % , & = F F = % % % & 9 B 9 & & % % 5 6 $.8.- = = = ",
"i S ~ Q 5 & @ & 5 8 F i & & + @ % & 9 9 @ % @ % 5 9 F 9 & , @ @ - 9 Q 9 % @ @ @ & = Q #.5 % @ @ = B F F = & % > - 6 $.Q - = & = ",
"= 9 i.F & 8 1 5 & 9 $.9 % 6 & 5 % = B F % , , 8 % 9 8.9 % 5 % 8 & 9 8.= & 5 , , $ - w.9 & , , q * 6 B B = 5 , q $ y Q L = B 6 e ",
"= Q #.Q 9 F J y & #.9 e 5 6 B = % 9 8 1 & 5 Q 9 & e e e 5 = F i & e 9 8 1 & S = , e e e 1 1 Q 9 , e 1 5 & = F y = #.B B = i ~ ~ ",
"F 9 @ 5 = B Q F = & + & & 6 9 - & % + % & = F - & & % % & 9 S - & & @ & 1 = y y & @ + @ & 1 F S , @ @ % , 5 F S 5 & # = = J ~ ~ ",
"9 5 + = & #.Q S 8 & + & = 9 #.F & @ o + & = 9 5 , % + + & 9 F 9 1 @ + % 5 = v y , @ + % & 9 F y , @ + @ & 9 #.F 1 % + = 5 L ~ 4.",
"5 F 9 9 5 Q Q J & 5 1 & # 6 F 9 & 5 & % % 5 B 5 5 5 5 = = 9 #.#.& 1 = = & 9 F 9 & & 5 = = B F 9 , 5 5 = & 9 Q J & 8 = 6 = Q 4.3.",
"5 #.Q #.5 9 F F , #.$.#.& 9 B B & 5 9 = & 5 9 8 & 5 #.9 5 5 9 #.& 9 F 9 & = 9 8 & 9 B = & = 9 B & 8 #.5 = 9 S 9 = 9 #.#.= S J Q ",
"9 F 8.8.5 = & & = 6 F F & & @ % & = S 9 & % % % & 5 Q 9 & & % , = = F F = % + % = = 9 9 = & & , 5 = #.9 = & # & 9 9 Q Q - = & 6 ",
"9 i 4.4.5 = % @ 9 9 J F & & + % = = S 9 & & + @ & 9 #.9 & & @ @ = = &.S & % + @ & = 9 S = & @ @ = y &.B & # @ @ 9 y Q Q - = & = ",
"- S w.J & 9 5 8 = - J 6 # 5 > , & = F = # = & , & - Q 9 = 5 , 8 # y 0.9 & , , 1 & 5 Q y # = , , $ = 4.9 & & 8 1 $ y Q J = 9 9 #.",
"= Q F $.6 #.Q 9 = Q 9 9 % 5 #.9 @ 8 8 8 5 = 9 = , e e e % 9 Q - & #.< < , % 1 t > r 4 4 * r l a & 4 < w = 5 B i - #.9 B 6 #.w.~ ",
"i 9 # = & 9 Q S 1 , @ & % 5 i - & @ o @ & & S S , % + % % 5 &.y % % O > 1 < t = , % o # & < c k & & O # + 5 B 9 1 & # , 6 i ~ 2.",
"9 = + & = F J F , > + % % - ; - , @ o + & & y = & @ + % % 9 F = > % o # * t t t & o o # * 8 a a , % o % & 9 #.i , , @ & = L ~ U ",
"9 #.8 5 5 Q Q S > q , & + 5 i - @ 1 , & & = 9 = @ 1 , = & 9 F 9 , 1 % & % 1 t t # 1 & = % c c 1 % & > 1 % 6 B 9 , e 1 5 5 J ~ / ",
"9 Q Q #.= F F F % 9 F 9 & 1 1 1 & 5 8 1 & = 9 9 , 8 { 5 * 5 9 F = < c c * * 1 1 * r c 1 % 1 r < , w B [ & 6 B #.& 9 B B = B #.Q ",
"9 F w.Q = = # & = ; S F & % @ > & & 9 5 & & + & = 8 B 9 & & # , = 1 O.c * % o O * 1 c O.* & % > % 1 B 6 % & % % - - i J 6 5 & 8 ",
"9 i w.4.6 = # @ 9 = S F & * O @ = = 9 = = % + @ & 9 F B & & + % * 1 O.c & # o o * = c B & & # O & 6 J #.& = % @ - y F J = = % , ",
"- S i.F & 9 5 8 & 5 Q 9 & = & 1 $ = v & + 1 , 1 & 9 #.5 % , > q & = Z c & 1 % , * c Z 6 % 1 < < & = B 9 * , , q & 9 Q J - 8 5 B ",
"= ~ F F 5 F #.F & ) < O.= = J ; & 9 * 1 & = i - & 6 6 8 & 1 9 J & 8 < 8 * 1 l $ # < , < * 1 r t & e 8 e & 6 L a & 7.[ Z 6 Z 2.~ ",
"9 y % = 5 9 F S & = o & * 1 Z $ & &   @ % & 6 6 % > % & & 9 9 y & % o & * - t - & % o > , 1 r a 1 % + % % 6 Z Z & , % = 1 i ~ ~ ",
"9 8 + % = i L S = % o + # 1 6 = , % + % # 1 = i > > @ @ & i - - , @ o # * , t t > @ o % * r t r 1 @ o % & B Z Z = & o & 1 Z ~ ~ ",
"9 #.5 5 & F L S 1 = , & # < 1 8 @ % % @ # c 1 1 > , % & & 6 6 9 % 1 > & O , r t O , > & # r r t @ , % % + 5 a 1 % < 1 = = ,.~ w.",
"= J Q F = 9 9 B = 1 8 < & , , < * > 2 , # r 1 2 & = 6 1 % , 3 3 @ < r , @ , , , O , < , # 1 , t > 8 8 1 @ 1 8 8 * a O.B = B J T ",
"; i Q Q 6 & % > = 1 c c # & + @ @ * 1 1 + + X @ # = 6 6 > > O @ % * < < # # O O * * 1 < % # O @ , , 1 8 % % + % = 1 B $.6 = & 6 ",
"; L ~ $.= & @ % = 6 c r # # o O # t r c % % o O # 6 B a & % @ @ , * r r % % o O , * r 1 # % o % = = [ $.1 % O > = t J Z = = # 1 ",
"= B 4.J = 8 & 8 = c B < * & > , # 1 t = # , > > % 1 B 8 % & 1 4 * 1 O.r * , % % * t *.r # 1 , 3 & = F 6 % 1 , , $ a ~ J = B 8 [ ",
"- ~ B B = i $.F & B 9 9 1 = B = * < * * 1 = l $ * ) < c = = G ; * < c ) * = G $ * 8 1 1 = = l a & 9 9 5 = 1 Z - = O.; B 1 B ~ T ",
"9 6 # = 6 B J i 1 & @ & 1 = B 9 * > @ @ * 1 l ; , & o 1 * = a a * & o @ & * - - + * o # * t a - & % + % % = Z k = = # = 6 B ~ ~ ",
"q 5 # = = i L L 1 % @ % & 1 i 6 @ % o o # = t = & # o * & 1 r r > & o # 1 = * t % % o o * c [ 1 & % + + & = a l 1 & o & 1 $.~ 2.",
"5 #.9 6 = J F J % 1 , % % = i 6 * * % O & 1 1 = & 1 = & * 1 [ r @ % & 1 + = - * * 1 & & & < c c % , , % = c Z 1 > < = $ = $.2.2.",
"& J Q F = B 8 9 % r ) 1 % & 1 1 % 1 1 * * , 1 * % 1 r < % 1 1 r & , +.r + , t = + = 1 1 % & , < % 1 8 = % = < 1 % a $.B 1 O.Z T ",
"; ; Q J 5 & > , * , ) < % + O # O > r > # @ + O & > < r % # + @ # , 1 , + O X + @ & 1 1 @ % O % @ , c 8 % o O > & 1 Z J 1 = & - ",
"i S J J = = @ @ , = r r > O O X O * t * + O O O & > 1 < # @ o O * , r < * > . O * , < 1 @ % + @ , & #.8 & % O O 1 1 Z $.= 1 * = ",
"5 F w.F & 9 & 1 * t [ < @ > > @ % * t > @ * > > @ , [ r % 3 , 3 * * r < o > > > # , r < % > @ , & & B 1 % , > 3 # 1 T i & 8 1 [ ",
"- 7.Z Z = a T ; , r < { 1 * 1 a # t = r # < r = % ) 1 1 1 = [ - % r 1 = & & < & % 8 5 { & 5 v = @ 8 5 5 & 6 S = & O.6 a = i 2.I ",
"6 6 * = 1 G Z k * , O # # = c - O O X # # 1 j ; & % o # * * G t & & o * , & 1 $ & @ . @ % & 9 y & @ o % % = F i & & + = 6 ; Y ~ ",
"6 1 # & = Z k a t * @ * & a Z 1 3 O   o % * - $ = % + # & 1 t t > # o o * 1 t $ & @ + % & 9 9 9 % % + # % 6 F 9 1 & + = 6 $.2.2.",
"6 B a a 1 Z D a * , * , & = a = % % # # # , t ; % & = % * 6 t - & 1 = * % 1 r t + % % & % 9 9 y % = & & * 9 F 9 % = & = = O.~ T ",
"= $.$.B = c a a 1 2 [ r * = 1 a % * - t @ 3 < 3 , 1 +.1 * ) r r @ t s , % , * * # 5 9 6 % & , 8 % 5 8 & % 5 5 6 & 9 F #.= $.,.w.",
"6 i $.w.1 & % & * < r r # % + o * * * s + @ . O % % 1 , * * O + > , t = % @ O # # & = 9 # + o @ & 1 9 9 & & @ @ & = B B = = * 1 ",
"i Z ,.J = & O % 1 1 { ) @ > O o O O = = + O O O % & < < 1 @ O O , = t = @ O . O # & 9 #.% % @ @ % , e 9 @ % o @ = 6 B $.= = % 6 ",
"= Z 2.k * 1 > 3 & * 2 , O 3 @ @ O > ) * O @ % # o 1 8 & @ % > > % , ) * O @ O > + % 9 , + @ @ , @ , e , o > > 1 # = $.B = 6 1 [ "
};
