/* XPM */
static char *aff2947d567f4aedda427034ab894437FB5cOWpRglGrzr2x[] = {
/* columns rows colors chars-per-pixel */
"64 64 49 1 ",
"  c #BFBFBD",
". c #C2C3BD",
"X c #C5C6C1",
"o c #CECFCA",
"O c #CECECE",
"+ c #CFD0CB",
"@ c #D2D3CE",
"# c #D0D0D0",
"$ c gray82",
"% c LightGray",
"& c #D5D6D1",
"* c #D3D3D4",
"= c gray83",
"- c #D5D5D5",
"; c #D5D5D6",
": c gray84",
"> c #D6D6D7",
", c #D7D7D7",
"< c #D7D8D3",
"1 c #D9DBD5",
"2 c #D7D7D8",
"3 c #D8D8D8",
"4 c #D8D8D9",
"5 c gray85",
"6 c #D9D9DA",
"7 c #DADADA",
"8 c #DADADB",
"9 c #DDDEDA",
"0 c #DBDBDC",
"q c gainsboro",
"w c #DCDCDD",
"e c #DDDDDD",
"r c #DDDDDE",
"t c gray87",
"y c #DEDEDF",
"u c #DFDFDF",
"i c #DFE0DC",
"p c #DFDFE0",
"a c gray88",
"s c #E0E0E1",
"d c #E1E1E1",
"f c #E1E1E2",
"g c #E2E2E2",
"h c #E2E2E3",
"j c gray89",
"k c #E3E3E4",
"l c #E4E4E4",
"z c gray90",
"x c #E6E6E6",
/* pixels */
"OXoo@@@&&@@oo@@   &&11+o@@@@@&&XX  @@@@@@@@@oo+++@@o@@@.......@@",
"O&99111&&99111111199&&9999iii11111199999119999999999999&<111ii11",
"#&@@+++o+&&&&<&o@o&&&&&<++<<1<:&&&&@@@&&11:1<1o++11@@@@11&&&@@@@",
".i@axxxxxxxxaxqqaxx3p2:#axxaxaxk1qkkkxpp:qjqqq:++414@33xq4xua@i.",
".1&3xxxxxxxxxaqkaxakxa::axxxxxxxxxqaaxxk0prxxxkjj333334q3jjaa&1.",
".1&#xxxxxxx3xxaxxxqakaqpxxxxxxpqaaxxxa333aqxakxxxk443j4xuqxjx<1.",
".1&#xxxxxxxxqxpaxxxpqqqq3xxxxxxaap00xxx0rxkxxxxjkxx444jxjjxjx&1.",
".<1qOxqxxaxxxxqqxqxaqqaxapaakkqar00xxaax3axxxxxxxxxxxxjjjjjjj1<.",
".:19qxqxxxxaxxaqakakkqaqaapxxaxx0x0ruqx0axxxxxxxxxxx3xxxjjjjx1<.",
"@9@xxqxaxaaaaaaaaaakaaaqaqpaxaaxxx3rpqxxxxxxxxxjxxxxxuuuxqkxx@9@",
"@9@axxkaaxaaxaaxaqaapqpaaaaxppxxaxxapaxxxxxxxxxxxxxxxxpxkjaxx@9@",
"+9%qxaxaaaxxqaaaxaaaxaqaqxqqaaaqap0aqpaxaxxxxxxx3xxxxxxxjjjxx@9+",
"o9@lpxpaaxaaxpaxaaaxxapaq0xpxxxxaxxxxaaaxxxxxxxxxxxxxxxaxrqxx@9o",
"@91x0paxxxaqpxxa3xaaaxaqqp0xxxxxxpaakaxkaxxjxxxxx3xxjxxxarxq:19@",
"@91q2qaxxxxaxqka3xaxaaaxk:pxxxxxxaxkaaaxxxaa3xxxxqxxjaajj3qq:19@",
"o9@:xqxxxaxqqx0xxaaaaxpxxaxqaxxxxxaaxakxkkxaxxxxxxuxxaxjjka:q+9+",
"+9+3kaxxxxqxk3qaxaxaaaaaxxxxxxxxxxjajjjuqjuxxxxxxjqxuxxkuj3ax+9+",
"+9@akxxxxxxxxxxxxxaxaaxaqxxxxaxajaaajjaxxxjqjxxxxuqjxxxpuu3ako9+",
"o9<xxxaxxxxxq3xa3axaxxqapxxaaxxxxxajaaaaaxxxuxxjjxqqxqxuqqpaq&9o",
"o9<xxaxxxxxaxxxqaxxxaaxx3xx:xxaxjjaaxjxxxajxxqxxxqqqqx3334uu339o",
"@91qaaaqxxxxxxxxxxaxxxxaxxxxaxaxxaaxjxxxxaaaauxxxuqqx3qxq:qax<9@",
"@9<33xxxaxxxa33xaxxaxax33qxxxaxaxxxaaxxxxxaaxxxaurqqaxqqaq3xx<9@",
"@11kaxaxxxxx3qq3xxxxaxxxxaxxxxa2jajxxjxxxxxaaxxuxuuupxxqq3xxx11@",
"@11ppqaqxxxxxx3qxxxxxaxxaxxxaxaajxajxxxxxuaaxuuxuuq3qqqjxxqqx11@",
"@9&qqaqqxaxx03qx3axx222xaaxxaxaxpjqxxxxxxuuxxuuxxax3ujqqjxqxx&q@",
"@9&axqxaxxxxa03xxqxx20xaqxxxxaxajjuxxxjxxxxquuuuxaaujqua3xxxx&i@",
"@9%xxaaqxaxp03a3qxxxxxxxaqxxaxxa3xqqxpqxxkxuuuuuaaxq3x3jx3xx3@9@",
"@i@aaaxaxappa30pax3xaxxqxxxxxxaxjxxuxqxxxxxxuxjuaaaaa3jjxxxxi@9@",
"@9@xalxaaapp3a0pxxkaxa3xxxqxx3xqkxkpkxjxxxxpquuuuxjxuaqaxjk#a@9@",
" 1&x9axak30a30ppp220axxaxqqqxpqxuxxkxjqjuxjxxuujxjxxxxxjjxk4#<1.",
" 1&33a3xx03aapxpxx333kqkxxaaqkqqxxqxxkxpxppauuaxjxjxkxxxxjkx$&1 ",
"X1&x0x0x3aq3apppxxxa33kqqqx3apxxqjkxxxpkpqpqjjjkaxjjjjxxjjpx3&1X",
"X1&xxqpxxxppppxxxxxjj4kxxqxqrupuxxkkxupkxqpkpjjjaaxjxxjxjjqax&1X",
"&1<xxxxxxxpp3qxxxjxj3kkxjqqpxxpxjjkxxqaxuxpqqjjjkkjkaxxjjxaxq<1&",
"&1<pxxx3qxxuxxppjxjxxxxxxjqxxxxqrjuqjjkpjkpaaaajaxajaxjxxaja3<1&",
"@u<uxxxxxqxxqkppxjxxuxxxxjxxxjjpakqxxjxkjjuajaakxajjxxxxjqjqq<u@",
"@i<qxqxuuxxpqj33ppxxpxpx3qqjxxxjxjjjqkxkjrxxapjkjkxjxxxxxaqx3<i@",
"@i<uqx3q3pxqujxuxxxrpxpp3xxxjxxxjujjkxxxjjappjjjjjjxxxxxxixxq<i@",
"@9@quxrpuxuppqx3xxqppp4xuxxxjjjjjrqkjjxxxjjajjjkapkxxjxjxxaxlo9@",
"@9+uqq33pq3ppkjuppppppqpxxxxxxjxxxxjjxxjxruxaxppxxxxjxjjupaxq@9@",
"o9&%ux3qxqup3qxxppppxxxkxxxxxkjjxjjrjjqjxjjjjuxxaxjujxjjujaxk&9o",
"o9&%xr3upqupqrjxppppxxxxxxxxxjxjxxarjjxkjjajjjjjjxqajxqjquauq&9o",
"<&&xqxq3qpqq3xxjppxxxpxxxxxxxjxjxxxjjjjxajxaxjkakupauuuupuxxx&&1",
"1&&9qqxqjjj3kxxxxxxkxxxxxkxxjjjxarxxjxjjajjjajjxjpappqjxxujjx&&1",
"&9&xqqxuqurqjjxxxxxuxkxxxxxxxkxxxxxxxjujjuuuajaaaaaaaaxakjjjj&9&",
"&9&qxxjrqjjqqxxxxxxxxxxxkxxxxxxxxxxxjxxuuxxuajjajakaaapukjjux&9&",
" 1+u%q%kxxqjxxxxxxxxjxxjxxpxxxxxxxxxjxkuuuuuajujaxaxajxauxkxx+1 ",
" 1+==%:kxqjqxxxxkxxxxjxxxxxxxkxxxxxxxauuuuujjujaxaaaaxauuxxju+1 ",
" 1@#:xxxxxxxjxxxxxxxjxxxxxxxakaxxjjxxxuuauuxaaajkaakaxxaaxxkx@< ",
"@1&xxxx=xkxjjxxxxjjxjjkqxxxxxakajxxxxxuxajujjjjxxaxxxxjjxaxxx&1@",
"@1&aax=xkjrqjuxxxxxjxjxxxkxqaxxaaxjxjajujajajaaxjaaajaxkxxkxx&1@",
"+1&kaaxxxxuxxxxxxxxxxjxxxxxxjaxxxxajjxxpujjajjuaaxxjaaaaxxxxx&1o",
"o1&qxxppxuuxxxxxjxxkrrqxqxxqxjxxaajjaxxxxajjaajxxjxxxxjxlxxxa&1@",
"@9&xxxxqxxx3xxxxr3xaxpxkxkkxjxaxxjaxaxjxxjjxxxjxxxaxxxxxxxxxx&9@",
"@9&xxxxqxxxuuxxuxxxarrpqjaukxxxxaxxxxxxxxkaxxxxxxxxxxqaaxxxxx@9@",
"&&+xxjxxxxuqqaqqq4xxprqxxqqkjkxxxxxxjaxxxaxxxxaxxxxxxxqxx3xxx@&@",
"&&+kkkxxxxxxxjuxxxxxxqxqrjxjjjxxxxjaxjxxxxxxkxaxxxqxxqaau13ax+&&",
"@1+xaaxxqqqxjuqxxxxxxxuapxjxjxxxxxjj%xxkaxaxxaxxxxxqxxq3pqx3x+1@",
"@1+xaxxxxqaujjxxqxxxxaxxaxxjjjxjxjjjxxxjkxkaxjxjaxqqxxuqxqrup+1@",
"@1@xaxxxuuxuxxjxxuqxjxxxxxxxjjjxkjj=xxxjxxkxax3xxqaqqxqxq4rqa+1@",
"o9@xxxjaxauujxxxxjqjaxxxxjjjxqaqxxakjaxqxxx14xrxq9axxjxux3uqq@9+",
"$&@@+o++@&&&&&&+++&&&&&&++<<<<1&&&&@@@&&11<<3&o+@<1@@@@11&&&@@@@",
"O&99111&&99111111199&&9999iiu11111199999<19999999999999<<111iu11",
"OXoo@@@&&@@oo@@   &&11++@@@@@&&XX .@@@@@@@@@oo+++@@o+@@.......@@"
};
