/* XPM */
static char *cb7e144e272e48a6a07698b60cf8cffbBQQLKvKDh6Hf5KnB[] = {
/* columns rows colors chars-per-pixel */
"64 64 48 1 ",
"  c black",
". c #1C1709",
"X c #161616",
"o c gray10",
"O c #241D0F",
"+ c #2C2515",
"@ c #332A1B",
"# c #3A311C",
"$ c #232323",
"% c #282828",
"& c #2C2B2B",
"* c #2C2C2C",
"= c #33302A",
"- c #34312B",
"; c #37332A",
": c #31312F",
"> c #36332D",
", c #37342E",
"< c #3A352C",
"1 c #3B362D",
"2 c #313030",
"3 c #313131",
"4 c #353331",
"5 c #353432",
"6 c #343434",
"7 c #353535",
"8 c #353636",
"9 c #383634",
"0 c #393736",
"q c #3A3834",
"w c #383837",
"e c #393938",
"r c #3E3E3E",
"t c #443723",
"y c #4D3D28",
"u c #5A4730",
"i c #614B34",
"p c #6C513B",
"a c #464646",
"s c #4B4B4B",
"d c #535353",
"f c gray36",
"g c #735940",
"h c #7B5F46",
"j c #646464",
"k c #717171",
"l c gray49",
"z c #896851",
/* pixels */
"oooooooooooooooooooooooooooooooooooooooooooooooooooooooooooooooo",
"o@+@r@tr+#@@@#%#rta7*tt+@yy7yf@ii@fy7yy@+tt*7atr#%#@@@#+rt@r@+@o",
"o@3ts@ti%XO%t#@+%Xty+yr@%X@y#+@##@+#y@X%@ry+ytX%+@#t%OX%it@st3@o",
"or.tiOttX @O@77*X @ty@iyX O@tttyyttt@O Xyi@yt@ X*77@O@ XttOit.ro",
"o@*@tOy#@r@@##+#tuy@r#@O*atr@raddar@rta*O@#r@yut#+##@@r@#yOt@*@o",
"o+#%rO         XXX            X  X            XXX         Or%#+o",
"o@O#s.  XXXXXXXXoo.XXXXXXXXXXX.XX.XXXXXXXXXXX.ooXXXXXXXX  .s#O@o",
"oOO%X@ Xo$o$%$o$%%+*%%%$$o.oo$OOOO$oo.o$$%%%*+%%$o$%$o$oX @X%OOo",
"os@X O XO%+$%******3***+OOOOo$$$$$$oOOOO+***3******%$+%OX O X@so",
"oytO@r X$%%%%**33%%333%+OOOOO+$$$$+OOOOO+%333%%33**%%%%$X r@Otyo",
"o@#trr X+%*3**+*7*%*773++$$O++++++++O$$++377*%*7*+**3*%+X rrt#@o",
"oyOOy@XX++%*3@++33**7rr*+%%%++++++++%%%+*rr7**33++@3*%++XX@yOOyo",
"odd+t@ X$%@@@@@++*33377*$%**@+@++@+@**%$*77333*++@@@@@%$X @t+ddo",
"o@a@yt X%@@@@@*%$$*3**3*+%**@++++++@**%+*3**3*$$%*@@@@@%X ty@a@o",
"ott#t7Xo***3@@**$$%****3%+%%++O++O++%%+%3****%$$**@@3***oX7t#tto",
"oy@%X+ o33377@**++%**%*3*$$++++++++++$$*3*%**%++**@77333o +X%@yo",
"ortX a X%*3773***++**%***%%%**%++%**%%%***%**++***3773*%X a Xtro",
"o7y7a7 X$%*33*****@@******%**%%**%%**%******@@*****33*%$X 7a7y7o",
"o@#@#+ X$%%*3*@@%**%*33***%%*%%33%%*%%***33*%**%@@*3*%%$X +#@#@o",
"o@tt+. X$%%*33**%%*%%**%%%%%*%%**%%*%%%%%**%%*%%**33*%%$X .+tt@o",
"o@7s#t  o%**3333*%*****%%%%%%%%%%%%%%%%%%*****%*3333**%o  t#s7@o",
"o+tO+y  .$*******%*3*%%$%%%**%%%%%%**%%%$%%*3*%*******$.  y+Ot+o",
"o#t#@O  X$%%%%%*%%*33*%$$$%*73****37*%$$$%*33*%%*%%%%%$X  O@#t#o",
"oya%Xs  Xo$%%%$$$%*333*%%%**33377333**%%%*333*%$$$%%%$oX  sX%ayo",
"o@yX # XXo$$+%$$$$**373%$%*3337777333*%$%373**$$$$%+$$oXX # Xy@o",
"ot@+p#  Xo$$%%%$$$***3*%$$*3733773373*$$%*3***$$$%%%$$oX  #p+@to",
"o*r@##  .o$$$%%$$$***3*%$$%*33377333*%$$%*3***$$$%%$$$o.  ##@r*o",
"o@+yty .OOOO+%%%$$*****%%%%*37733773*%%%%*****$$%%%+OOOO. yty+@o",
"o@uuy# Xo$%%%$$$%%*3**33*%%*777rr777*%%*33**3*%%$$$%%%$oX #yuu@o",
"o@@dyy XoO$$$$$%$$%***3333**73377337**3333***%$$%$$$$$OoX yyd@@o",
"o+#dy# XoOO$$$$$$+%***3777**3*3773*3**7773***%+$$$$$$OOoX #yd#+o",
"o##%Xu Xooo$%$+$$$%*%*33373*33777733*37333*%*%$$$+$%$oooX uX%##o",
"o@+X @ XOOO$%$++$$$%****3***866rr777***3****%$$$++$%$OOOX @ X+@o",
"oOO@#@ XO+O++%+++$%%%****%%*36wrr773*%%****%%%$+++%++O+OX @#@OOo",
"od##tr Xo$++%%+++$%%%3333****38rr73****3333%%%$+++%%++$oX rt##do",
"o#ta3# .O$+$$%%%$$%%*3376333336rr7333337833*%%$$%%%$$+$O. ;3at#o",
"o#@t@s .O+$O++%%%$%%**333***33387333***333**%%$%%%++O$+O. s@t@#o",
"o@#uta X.OOO+++%%%@*****33**33367333**33*****@%%%+++OOO.X atu#@o",
"o#ytts  XO+++++%%@7@*@++3833833**3373373++@*@7@%%+++++OX  stty#o",
"o+#%Xt XO+@@+++@@@**37773*33683**37733*38773**@@@+++@@+OX tX%#+o",
"o7yX t XO%%@+++@*3**33333***63363335***33333**3*@+++@%%OX t Xy7o",
"o#@@i@ XO+%+++++*333337786*38338w7353&377733333*+++++%+OX -u@@#o",
"o3##ar XO+@@+++++*3777778875833377377777777773%+++++@@+OX ya##3o",
"ott@rt X$@%@+OO++@37rr77rryw83333*:werrr87ry83@++OO+@%@$X 1r@tto",
"o@t@$a X%%%%+$O+@@37rr7rrarw7:%::&34erarr8rr83@@+O$+%%%%X a$@t@o",
"o#@7@a X$%%*%++@337rr777rrr73333::337rrr887rr833@++%*%%$X a@7@#o",
"otu@usXXO++%%+@3777rr777rrr7778744377rrr887rr3783@+%%++OXXsu@uto",
"o3#%XuX.$+O$+++@77777777rr755:>3:::457rr88788887@+++$O+$.XuX%#3o",
"o@#X 7XO@@+O+++@77733777rr755>:44::557rr77733777@+++O+@@OX5 X#@o",
"ota7aO .@@+++@@@@###@3337r755::0054w57r7333@###@@@@+++@@. Oa7ato",
"otr@#@ X@@@++@@@@@tt##@@377<w44>:>5ww573@@##tt@@@@@++@@@X @;@rto",
"ot@t+r .@@**@@@@@@####@@7775;>><>-5;<777@@####@@@@@@**@@. y$t@to",
"oyrs#y .@33###@@@###33@@77709;-79-<q5777@@33###@@@###33@. y#sryo",
"oy*O+@..@3##t#@@###@773@#37<<<<w09<<;73#@377@###@@#t##3@..@+O*yo",
"o7yl@# .@3#t##@@##@3773@###t#473375#t###@3773@##@@##t#3@. #@ly7o",
"oay%X@ .%*7tt#@@@73*33@@3##t#tr77rt#t##3@@33*37@@@#tt7*%. @X%yao",
"otyX @ o377ryyttyrr7#t#@77tttyy##yyttt77@#t#7rryttyyr773o @ Xyto",
"otr%r7X+rdddppiipffiuuuyasaasdduuddsaasayuuuiffpiippdddr+X7r%rto",
"o#a#srO@dkkkkkhhzkkhhgggfffffjjhhjjfffffggghhkkzhhkkkkkd@Ors#a#o",
"otu#@#y+O@t@##O@t@##t@@#$ya7@#tyyt#@7ay$#@@t##@t@O##@t@O+y#@#uto",
"ory+t#t#%Xt+t@u@%Xutruy@%XrdutyyyytudrX%@yurtuX%@u@t+tX%#t#t+yro",
"otfytt#@X j#@#y+X rdsdyyX t7a7taat7a7t Xyydsdr X+y#@#j X@#ttyfto",
"o@@*raryt@@t###.O##ou7ttytO@*rarrar*@Otytt7uo##O.###t@@tyrar*@@o",
"oooooooooooooooooooooooooooooooooooooooooooooooooooooooooooooooo"
};
